<svg xmlns="http://www.w3.org/2000/svg" viewBox="0 0 512 512" role="img" aria-labelledby="title desc">
	<title id="title">Gearset Refresher</title>
	<desc id="desc">Gold armor surrounded by cyan refresh arrows on a dark blue tile.</desc>
	<defs>
		<linearGradient id="background" x1="64" y1="32" x2="448" y2="480" gradientUnits="userSpaceOnUse">
			<stop stop-color="#172A43"/>
			<stop offset="0.55" stop-color="#0B1728"/>
			<stop offset="1" stop-color="#07101D"/>
		</linearGradient>
		<linearGradient id="gold" x1="196" y1="168" x2="322" y2="348" gradientUnits="userSpaceOnUse">
			<stop stop-color="#FFE49A"/>
			<stop offset="0.45" stop-color="#E6AD48"/>
			<stop offset="1" stop-color="#9B6121"/>
		</linearGradient>
		<linearGradient id="cyan" x1="102" y1="119" x2="415" y2="399" gradientUnits="userSpaceOnUse">
			<stop stop-color="#9AF5FF"/>
			<stop offset="0.5" stop-color="#49CCE5"/>
			<stop offset="1" stop-color="#1688B1"/>
		</linearGradient>
		<filter id="shadow" x="-30%" y="-30%" width="160%" height="160%">
			<feDropShadow dx="0" dy="12" stdDeviation="12" flood-color="#020812" flood-opacity="0.65"/>
		</filter>
	</defs>

	<rect x="18" y="18" width="476" height="476" rx="104" fill="url(#background)"/>
	<rect x="31" y="31" width="450" height="450" rx="91" fill="none" stroke="#29425E" stroke-width="5"/>
	<path d="M66 148L250 42H392c55 0 100 45 100 100v11L306 260 66 148Z" fill="#2C4963" opacity="0.12"/>

	<g fill="none" stroke="url(#cyan)" stroke-linecap="round" stroke-width="27" filter="url(#shadow)">
		<path d="M117 207c21-73 87-126 166-126 51 0 98 22 130 57"/>
		<path d="M395 305c-21 73-87 126-166 126-51 0-98-22-130-57"/>
	</g>
	<path d="M397 101l37 70-79-4 42-66Z" fill="#63DBEE"/>
	<path d="M115 411l-37-70 79 4-42 66Z" fill="#2AA9CA"/>

	<g filter="url(#shadow)">
		<path d="M212 151c11-15 26-24 44-24s33 9 44 24l-11 46h-66l-11-46Z" fill="url(#gold)"/>
		<path d="M222 170h68" fill="none" stroke="#7E4A1A" stroke-linecap="round" stroke-width="9" opacity="0.75"/>
		<path d="M189 188l34 22h66l34-22 56 38-27 62-28-15v100H188V273l-28 15-27-62 56-38Z" fill="url(#gold)"/>
		<path d="M223 210l33 38 33-38v163h-66V210Z" fill="#B97829" opacity="0.75"/>
		<path d="M188 273l35-18M324 255l35 18" fill="none" stroke="#774619" stroke-linecap="round" stroke-width="10" opacity="0.65"/>
		<path d="M256 247v126" fill="none" stroke="#FFE5A0" stroke-width="5" opacity="0.45"/>
		<path d="M188 373h136" fill="none" stroke="#FFE5A0" stroke-linecap="round" stroke-width="8" opacity="0.55"/>
	</g>

	<circle cx="388" cy="383" r="45" fill="#102238" stroke="#4AD3E9" stroke-width="7"/>
	<path d="M367 383l14 14 28-31" fill="none" stroke="#F8D377" stroke-linecap="round" stroke-linejoin="round" stroke-width="12"/>
</svg>
